<svg width="150" height="150" viewBox="0 0 150 150" fill="none" xmlns="http://www.w3.org/2000/svg">
<mask id="mask0_35_295" style="mask-type:alpha" maskUnits="userSpaceOnUse" x="0" y="0" width="150" height="150">
<rect width="150" height="150" fill="#D9D9D9"/>
</mask>
<g mask="url(#mask0_35_295)">
<path fill-rule="evenodd" clip-rule="evenodd" d="M29.9535 35.0479C29.2171 37.3709 27.8544 39.4538 25.8796 41.0275C21.5518 44.4763 15.4963 44.5134 10.5069 41.6269C9.4207 40.9985 7.96951 41.2963 7.42379 42.4264C2.66658 52.2775 0 63.3273 0 75C0 116.421 33.5786 150 75 150C116.421 150 150 116.421 150 75C150 33.5786 116.421 0 75 0C72.887 0 70.7944 0.0873816 68.7256 0.258728C67.5597 0.355297 66.7697 1.45592 66.8334 2.62411C67.0665 6.90073 65.4777 11.0234 62.135 13.6871C59.9694 15.4129 57.3712 16.2844 54.6904 16.3627C53.0953 16.4094 51.6788 18.0095 51.8713 19.5936C52.4345 24.226 50.8697 28.7995 47.2626 31.6739C43.4735 34.6934 38.3601 35.0977 33.7974 33.2144C32.3317 32.6094 30.4327 33.5364 29.9535 35.0479Z" fill="#ECF8FF"/>
</g>
<mask id="mask1_35_295" style="mask-type:alpha" maskUnits="userSpaceOnUse" x="30" y="30" width="90" height="90">
<rect x="30" y="30" width="90" height="90" fill="#D9D9D9"/>
</mask>
<g mask="url(#mask1_35_295)">
<path d="M85 54V48C85 45.7909 83.2091 44 81 44H69C66.7909 44 65 45.7909 65 48V54" stroke="black" stroke-width="3" stroke-linecap="round" stroke-linejoin="round"/>
<mask id="mask2_35_295" style="mask-type:alpha" maskUnits="userSpaceOnUse" x="39" y="53" width="72" height="50">
<rect x="39" y="53" width="72" height="50" rx="6" fill="#C4C4C4"/>
</mask>
<g mask="url(#mask2_35_295)">
<rect x="39" y="53" width="72" height="50" rx="6" fill="#FF4F22"/>
<rect x="32.8867" y="53" width="72" height="50" rx="6" fill="#FF6243"/>
</g>
<path fill-rule="evenodd" clip-rule="evenodd" d="M81 70C81 69.4477 80.5523 69 80 69H72C71.4477 69 71 69.4477 71 70V73C71 73.5523 70.5523 74 70 74H67C66.4477 74 66 74.4477 66 75V83C66 83.5523 66.4477 84 67 84H70C70.5523 84 71 84.4477 71 85V88C71 88.5523 71.4477 89 72 89H80C80.5523 89 81 88.5523 81 88V85C81 84.4477 81.4477 84 82 84H85C85.5523 84 86 83.5523 86 83V75C86 74.4477 85.5523 74 85 74H82C81.4477 74 81 73.5523 81 73V70Z" fill="#FFCD1E"/>
<path fill-rule="evenodd" clip-rule="evenodd" d="M80 69C80 68.4477 79.5523 68 79 68H71C70.4477 68 70 68.4477 70 69V72C70 72.5523 69.5523 73 69 73H66C65.4477 73 65 73.4477 65 74V82C65 82.5523 65.4477 83 66 83H69C69.5523 83 70 83.4477 70 84V87C70 87.5523 70.4477 88 71 88H79C79.5523 88 80 87.5523 80 87V84C80 83.4477 80.4477 83 81 83H84C84.5523 83 85 82.5523 85 82V74C85 73.4477 84.5523 73 84 73H81C80.4477 73 80 72.5523 80 72V69Z" fill="white"/>
<rect x="93" y="52" width="6" height="3" rx="1" fill="#00A3FF"/>
<rect x="51" y="52" width="6" height="3" rx="1" fill="#00A3FF"/>
<path d="M49 72.5494V68C49 66.8954 49.8954 66 51 66H52C53.1046 66 54 66.8954 54 68V72.5641C54 73.1208 54.232 73.6523 54.6402 74.0308L59.3598 78.4064C59.768 78.7849 60 79.3164 60 79.8731V104C60 105.105 59.1046 106 58 106H45C43.8954 106 43 105.105 43 104V79.7521C43 79.1868 43.2392 78.648 43.6584 78.2688L48.3416 74.0327C48.7608 73.6535 49 73.1147 49 72.5494Z" fill="#00A3FF"/>
<path d="M54 72.1588V67.75C54 66.7835 53.2165 66 52.25 66C51.2835 66 50.5 66.7835 50.5 67.75V72.4241C50.5 73.1197 50.7417 73.7936 51.1838 74.3307L54.3162 78.1361C54.7583 78.6731 55 79.3471 55 80.0427V105C55 105.552 55.4477 106 56 106H58C59.1046 106 60 105.105 60 104V79.8481C60 79.2866 59.764 78.7509 59.3496 78.372L54.9756 74.3729C54.3541 73.8045 54 73.0011 54 72.1588Z" fill="#008FDF"/>
<path d="M47 66C47 64.8954 47.8954 64 49 64H54C55.1046 64 56 64.8954 56 66V68C56 68.5523 55.5523 69 55 69H48C47.4477 69 47 68.5523 47 68V66Z" fill="#EBB700"/>
<path d="M47 66C47 64.8954 47.8954 64 49 64H53C54.1046 64 55 64.8954 55 66V68C55 68.5523 54.5523 69 54 69H48C47.4477 69 47 68.5523 47 68V66Z" fill="#FFCD1E"/>
<rect x="46" y="82" width="11" height="19" rx="1" fill="#FFCD1E"/>
<path d="M55 82H56C56.5523 82 57 82.4477 57 83V100C57 100.552 56.5523 101 56 101H55V82Z" fill="#EBB700"/>
</g>
</svg>
