<svg width="150" height="150" viewBox="0 0 150 150" fill="none" xmlns="http://www.w3.org/2000/svg">
<mask id="mask0_35_294" style="mask-type:alpha" maskUnits="userSpaceOnUse" x="0" y="0" width="150" height="150">
<rect width="150" height="150" fill="#D9D9D9"/>
</mask>
<g mask="url(#mask0_35_294)">
<path fill-rule="evenodd" clip-rule="evenodd" d="M142.596 42.4679C143.079 43.4689 142.61 44.6504 141.657 45.2233C137.694 47.6074 135.064 51.6084 134.984 56.1836C134.941 58.7083 135.679 61.0853 137.001 63.1323C137.862 64.4642 137.368 66.5187 135.968 67.2637C131.611 69.5829 128.667 73.7833 128.582 78.6276C128.502 83.2392 131.032 87.3578 134.963 89.8731C136.307 90.7332 136.639 92.8444 135.659 94.104C134.013 96.2211 133.031 98.7795 132.983 101.548C132.912 105.628 134.884 109.323 138.062 111.862C138.917 112.545 139.236 113.751 138.656 114.679C125.407 135.889 101.851 150 75 150C33.5786 150 0 116.421 0 75C0 33.5786 33.5786 0 75 0C104.765 0 130.48 17.3392 142.596 42.4679Z" fill="#ECF8FF"/>
</g>
<mask id="mask1_35_294" style="mask-type:alpha" maskUnits="userSpaceOnUse" x="30" y="30" width="90" height="90">
<rect x="30" y="30" width="90" height="90" fill="#D9D9D9"/>
</mask>
<g mask="url(#mask1_35_294)">
<rect x="41" y="52" width="60" height="60" rx="25" fill="#FFBCAC"/>
<mask id="mask2_35_294" style="mask-type:alpha" maskUnits="userSpaceOnUse" x="39" y="50" width="60" height="60">
<rect x="39" y="50" width="60" height="60" rx="25" fill="#E47B35"/>
</mask>
<g mask="url(#mask2_35_294)">
<rect x="39" y="50" width="60" height="60" rx="25" fill="#FF4F22"/>
<rect x="45" y="50" width="60" height="60" rx="25" fill="#FF6243"/>
</g>
<circle cx="60" cy="91" r="6" fill="#FFCD12E"/>
<circle cx="59.27" cy="90.27" r="5.27" fill="white"/>
<circle cx="78.5" cy="83.5" r="4.5" fill="#FFCD1E"/>
<circle cx="78" cy="83" r="4" fill="white"/>
<circle cx="66" cy="68" r="4" fill="#FFCD1E"/>
<circle cx="65.515" cy="67.515" r="3.515" fill="white"/>
<circle cx="51.5" cy="74.5" r="2.5" fill="#FFCD1E"/>
<circle cx="51.12" cy="74.12" r="2.12" fill="white"/>
<circle cx="80.5" cy="97.5" r="2.5" fill="#FFCD1E"/>
<circle cx="80.06" cy="97.06" r="2.06" fill="white"/>
<path fill-rule="evenodd" clip-rule="evenodd" d="M72.4301 56.6107C73.8621 57.968 75.6855 58.6934 77.6009 58.8131C78.2339 58.8527 78.6958 59.5384 78.4831 60.1359C77.2793 63.5179 77.91 67.2219 80.4301 69.6107C82.8443 71.899 86.3709 72.3913 89.5754 71.2129C90.1745 70.9926 90.8708 71.4538 90.9115 72.0908C91.0447 74.1744 91.88 76.1414 93.4301 77.6107C96.9817 80.977 102.941 80.4566 106.74 76.4482C110.539 72.4399 110.74 66.4615 107.189 63.0952C104.775 60.8069 101.248 60.3146 98.0435 61.4929C97.4444 61.7132 96.7481 61.252 96.7074 60.615C96.5742 58.5315 95.739 56.5645 94.1888 55.0952C92.7568 53.7379 90.9335 53.0125 89.0181 52.8928C88.3851 52.8532 87.9232 52.1675 88.1359 51.57C89.3396 48.1879 88.709 44.4839 86.1888 42.0952C82.6373 38.7289 76.6783 39.2493 72.8789 43.2577C69.0796 47.266 68.8786 53.2444 72.4301 56.6107Z" fill="#ECF8FF"/>
<path d="M81.3275 42.9831C81.0756 41.6417 82.2117 40.4476 83.564 40.6324L85.5646 40.9059C87.1804 41.1268 87.8668 43.0846 86.7427 44.2661L85.1148 45.9771C83.9907 47.1586 82.0011 46.5704 81.7002 44.9677L81.3275 42.9831Z" fill="#FFBCAC"/>
<path d="M79.562 42.9831C79.3101 41.6417 80.4462 40.4476 81.7985 40.6324L83.7991 40.9059C85.4149 41.1268 86.1013 43.0846 84.9772 44.2661L83.3493 45.9771C82.2252 47.1586 80.2356 46.5704 79.9347 44.9677L79.562 42.9831Z" fill="#FF6243"/>
<path d="M102.715 68.8404C102.842 67.7018 103.898 66.9026 105.028 67.0893L106.061 67.2598C107.794 67.546 108.342 69.7676 106.942 70.8277L105.793 71.697C104.393 72.7571 102.404 71.6259 102.599 69.8801L102.715 68.8404Z" fill="#FFBCAC"/>
<path d="M100.715 68.8404C100.842 67.7018 101.898 66.9026 103.028 67.0893L104.061 67.2598C105.794 67.546 106.342 69.7676 104.942 70.8277L103.793 71.697C102.393 72.7571 100.404 71.6259 100.599 69.8801L100.715 68.8404Z" fill="#FF6243"/>
<path d="M98.334 51.6587C98.3986 50.42 99.5636 49.5382 100.773 49.8124L103.578 50.4482C105.237 50.8241 105.699 52.9671 104.343 53.9934L101.388 56.23C100.032 57.2563 98.0956 56.2294 98.1842 54.5311L98.334 51.6587Z" fill="#FFBCAC"/>
<path d="M96.5409 51.6587C96.6055 50.42 97.7706 49.5382 98.9803 49.8124L101.785 50.4482C103.444 50.8241 103.906 52.9671 102.55 53.9934L99.5954 56.23C98.2395 57.2563 96.3026 56.2294 96.3911 54.5311L96.5409 51.6587Z" fill="#FF6243"/>
</g>
</svg>
