<svg width="150" height="150" viewBox="0 0 150 150" fill="none" xmlns="http://www.w3.org/2000/svg">
<mask id="mask0_35_293" style="mask-type:alpha" maskUnits="userSpaceOnUse" x="0" y="0" width="150" height="150">
<rect width="150" height="150" fill="#D9D9D9"/>
</mask>
<g mask="url(#mask0_35_293)">
<path fill-rule="evenodd" clip-rule="evenodd" d="M29.9535 35.0479C29.2171 37.3709 27.8544 39.4538 25.8796 41.0275C21.5518 44.4763 15.4963 44.5134 10.5069 41.6269C9.4207 40.9985 7.96951 41.2963 7.42379 42.4264C2.66658 52.2775 0 63.3273 0 75C0 116.421 33.5786 150 75 150C116.421 150 150 116.421 150 75C150 33.5786 116.421 0 75 0C72.887 0 70.7944 0.0873816 68.7256 0.258728C67.5597 0.355297 66.7697 1.45592 66.8334 2.62411C67.0665 6.90073 65.4777 11.0234 62.135 13.6871C59.9694 15.4129 57.3712 16.2844 54.6904 16.3627C53.0953 16.4094 51.6788 18.0095 51.8713 19.5936C52.4345 24.226 50.8697 28.7995 47.2626 31.6739C43.4735 34.6934 38.3601 35.0977 33.7974 33.2144C32.3317 32.6094 30.4327 33.5364 29.9535 35.0479Z" fill="#ECF8FF"/>
</g>
<mask id="mask1_35_293" style="mask-type:alpha" maskUnits="userSpaceOnUse" x="30" y="30" width="90" height="90">
<rect x="30" y="30" width="90" height="90" fill="#D9D9D9"/>
</mask>
<g mask="url(#mask1_35_293)">
<path d="M111.238 48.2368C110.797 48.1182 110.332 47.9574 109.845 47.7438C107.582 46.7511 105.957 44.7275 105.231 42.3419C104.107 38.6489 100.568 36.0391 96.501 36.3743C92.362 36.7155 89.0476 40.1546 88.8132 44.3515C88.5354 49.325 92.4679 53.4139 97.3046 53.3532C104.082 58.7172 109.297 55.8651 112.418 52.6598C113.821 51.219 113.169 48.7564 111.238 48.2368Z" fill="#FFC701"/>
<path d="M73.9492 37.0374C57.1668 37.0374 43.4497 51.3771 42.5015 69.4543C42.4437 70.5573 43.3446 71.4546 44.4492 71.4546H103.449C104.554 71.4546 105.455 70.5573 105.397 69.4543C104.449 51.3771 90.7317 37.0374 73.9492 37.0374Z" fill="#FFCD1E"/>
<mask id="mask2_35_293" style="mask-type:alpha" maskUnits="userSpaceOnUse" x="55" y="93" width="37" height="24">
<path d="M73.4492 93.7246C64.3108 93.7246 56.763 102.341 55.6036 113.504C55.4324 115.152 56.7924 116.501 58.4492 116.501H88.4492C90.1061 116.501 91.466 115.152 91.2948 113.504C90.1355 102.341 82.5876 93.7246 73.4492 93.7246Z" fill="#00A3FF"/>
</mask>
<g mask="url(#mask2_35_293)">
<path fill-rule="evenodd" clip-rule="evenodd" d="M90.9481 116.725C91.2256 116.725 91.4525 116.502 91.4525 116.225C91.4525 103.798 83.3936 93.7245 73.4525 93.7245C63.5113 93.7245 55.4525 103.798 55.4525 116.225C55.4525 116.502 55.6793 116.725 55.9569 116.725H90.9481Z" fill="#008FDF"/>
<circle cx="82.4525" cy="109.725" r="22" fill="#00A3FF"/>
<rect x="65.4525" y="94.7245" width="16" height="24" fill="white"/>
<path d="M78.4525 97.7245C78.4525 100.486 75.4525 103.725 73.4525 103.725C71.4525 103.725 68.4525 100.486 68.4525 97.7245C68.4525 94.9631 70.691 92.7245 73.4525 92.7245C76.2139 92.7245 78.4525 94.9631 78.4525 97.7245Z" fill="#FFBCAC"/>
</g>
<mask id="mask3_35_293" style="mask-type:alpha" maskUnits="userSpaceOnUse" x="42" y="42" width="64" height="56">
<path fill-rule="evenodd" clip-rule="evenodd" d="M100.708 76.382C97.8355 88.6482 86.9451 97.7736 73.9492 97.7736C60.9533 97.7736 50.0629 88.6482 47.1902 76.382C44.481 75.7964 42.4492 73.3595 42.4492 70.4423C42.4492 67.6075 44.3678 65.2263 46.9623 64.5567C49.438 51.7568 60.5794 42.0988 73.9492 42.0988C87.319 42.0988 98.4604 51.7568 100.936 64.5567C103.531 65.2263 105.449 67.6075 105.449 70.4423C105.449 73.3595 103.417 75.7964 100.708 76.382Z" fill="#FFC9BC"/>
</mask>
<g mask="url(#mask3_35_293)">
<path fill-rule="evenodd" clip-rule="evenodd" d="M100.708 76.382C97.8355 88.6482 86.9451 97.7736 73.9492 97.7736C60.9533 97.7736 50.0629 88.6482 47.1902 76.382C44.481 75.7964 42.4492 73.3595 42.4492 70.4423C42.4492 67.6075 44.3678 65.2263 46.9623 64.5567C49.438 51.7568 60.5794 42.0988 73.9492 42.0988C87.319 42.0988 98.4604 51.7568 100.936 64.5567C103.531 65.2263 105.449 67.6075 105.449 70.4423C105.449 73.3595 103.417 75.7964 100.708 76.382Z" fill="#FFBCAC"/>
<path fill-rule="evenodd" clip-rule="evenodd" d="M49.6147 91.3623C53.5978 82.0326 62.7703 75.5037 73.4492 75.5037C85.0965 75.5037 94.9518 83.2704 98.2364 93.9667C94.2534 103.296 85.0809 109.825 74.402 109.825C62.7547 109.825 52.8994 102.059 49.6147 91.3623Z" fill="#7ACEFE"/>
<rect x="42.4492" y="40.0742" width="62" height="20.2454" fill="#FFCD1E"/>
<path opacity="0.4" d="M72.4492 79.5527V83.6018H75.4492" stroke="#00A3FF" stroke-width="3" stroke-linecap="round" stroke-linejoin="round"/>
<path d="M101.3 61.3319H46.4492C47.3657 58.4529 48.6563 55.7282 50.2927 53.2338H97.4561C99.0926 55.7284 100.383 58.4529 101.3 61.3319Z" fill="#00A3FF"/>
<path d="M80.9492 57.2829C80.9492 61.5216 77.5627 64.9056 73.4492 64.9056C69.3357 64.9056 65.9492 61.5216 65.9492 57.2829C65.9492 53.0441 69.3357 49.6602 73.4492 49.6602C77.5627 49.6602 80.9492 53.0441 80.9492 57.2829Z" fill="white" stroke="#7ACEFE" stroke-width="5"/>
</g>
<rect x="60.4492" y="68.4178" width="3" height="5.06135" rx="1.5" fill="#111D38"/>
<rect x="83.4492" y="68.4178" width="3" height="5.06135" rx="1.5" fill="#111D38"/>
<path d="M42.8453 92.4643C41.9439 92.8367 41.311 93.6725 41.1901 94.6505C40.4278 94.0373 39.398 93.8883 38.4965 94.2606C37.1178 94.83 36.5218 96.5863 37.0844 97.982C38.4974 101.487 44.1542 102.004 44.1542 102.004C44.1542 102.004 47.8393 97.6288 46.4263 94.1233C45.8637 92.7277 44.2241 91.8948 42.8453 92.4643Z" fill="#FF6243"/>
<path d="M37.7287 97.7158C37.2082 96.4246 37.6808 94.8267 38.8461 94.1436C38.7271 94.1744 38.6103 94.2135 38.4965 94.2606C37.1178 94.83 36.5218 96.5863 37.0844 97.982C38.4974 101.487 44.1542 102.004 44.1542 102.004C44.1542 102.004 44.2494 101.89 44.4024 101.687C43.0939 101.495 38.9153 100.66 37.7287 97.7158Z" fill="#FF4F22"/>
<path d="M109.273 90.301C108.705 89.8187 107.924 89.684 107.23 89.9488C107.368 89.2114 107.101 88.4564 106.533 87.974C105.665 87.2362 104.285 87.4535 103.556 88.3326C101.726 90.5406 103.391 94.5805 103.391 94.5805C103.391 94.5805 107.61 95.5395 109.44 93.3315C110.169 92.4524 110.141 91.0388 109.273 90.301Z" fill="#FF6243"/>
<path d="M103.962 88.6773C104.636 87.864 105.867 87.6189 106.735 88.1708C106.673 88.1006 106.605 88.0348 106.533 87.974C105.665 87.2362 104.285 87.4535 103.556 88.3326C101.726 90.5406 103.391 94.5805 103.391 94.5805C103.391 94.5805 103.5 94.6052 103.689 94.6375C103.352 93.6771 102.425 90.5317 103.962 88.6773Z" fill="#FF4F22"/>
<path d="M103.452 103.898C103.13 103.625 102.687 103.549 102.294 103.699C102.372 103.281 102.221 102.853 101.899 102.579C101.407 102.161 100.625 102.284 100.212 102.783C99.1739 104.034 100.118 106.324 100.118 106.324C100.118 106.324 102.509 106.868 103.547 105.616C103.96 105.118 103.944 104.317 103.452 103.898Z" fill="#FF6243"/>
<path d="M100.442 102.978C100.824 102.517 101.521 102.378 102.014 102.691C101.978 102.651 101.94 102.614 101.899 102.579C101.407 102.161 100.625 102.284 100.212 102.783C99.1739 104.034 100.118 106.324 100.118 106.324C100.118 106.324 100.18 106.338 100.287 106.356C100.096 105.812 99.5701 104.029 100.442 102.978Z" fill="#FF4F22"/>
</g>
</svg>
