<svg width="20" height="23" viewBox="0 0 20 23" fill="none" xmlns="http://www.w3.org/2000/svg">
<path d="M7.94853 21.1811C8.79289 21.7442 9.78939 21.8997 10.6187 21.5941C10.9491 21.4744 11.2364 21.2893 11.4805 21.0386C12.4301 20.0803 13.5059 19.6785 13.5189 19.6724C13.9206 19.5225 14.1897 19.5362 14.5933 19.5535C15.029 19.5717 15.5737 19.5929 16.3741 19.4087C17.4457 19.1611 18.1975 18.4033 18.4578 17.317C18.7252 16.2051 18.4467 14.8792 17.7922 14.1734C17.4433 13.7909 17.0204 13.5351 16.5723 13.2657C15.8339 12.8149 14.9944 12.3098 14.2331 11.048C12.3228 7.91574 9.69525 8.77082 9.40367 8.87871C9.37768 8.89087 9.35828 8.89677 9.35828 8.89677C9.2869 8.927 8.63149 9.20512 8.0223 9.90897C7.45955 10.5562 6.82573 11.6967 6.9959 13.4699C7.17715 15.3077 6.94721 15.9832 6.73077 16.6334C6.56321 17.1369 6.38888 17.6532 6.42312 18.5223C6.4712 19.5912 7.02864 20.5646 7.94853 21.1811Z" fill="#FFCD1E"/>
<path d="M3.7333 11.7226C2.94516 11.1475 2.04603 10.962 1.32567 11.2245C0.417544 11.5574 0.0304468 12.4985 0.336553 13.6245C0.940494 15.8107 2.78353 16.1979 3.70031 16.1018C3.90652 16.0923 4.1035 16.0523 4.2861 15.9868C4.86958 15.771 5.25936 15.2881 5.34676 14.6561C5.48385 13.673 4.86627 12.5487 3.7333 11.7226Z" fill="#FFCD1E"/>
<path d="M7.0999 7.13251C7.27421 6.09607 6.70506 4.92442 5.57516 4.00968C4.86968 3.43602 4.0022 3.25038 3.26339 3.5234C2.38742 3.84503 1.64956 4.85578 2.10116 6.31724C2.47602 7.52549 3.04984 8.33102 3.81275 8.71265C4.58089 9.09442 5.26524 8.90364 5.47619 8.83086C5.56042 8.80698 5.64466 8.7831 5.72904 8.75399C6.47308 8.48111 6.96964 7.89286 7.0999 7.13251Z" fill="#FFCD1E"/>
<path d="M10.3129 0.398639C9.4236 0.725409 8.80114 1.64407 8.72862 2.74769C8.63682 4.1697 9.0586 5.34515 9.89565 5.96308C10.4815 6.39883 11.2149 6.50901 11.9047 6.25658C12.0879 6.19243 12.2665 6.09627 12.435 5.98389C13.1951 5.49949 14.2405 3.93848 12.8079 1.46536C12.237 0.477229 11.2559 0.0573766 10.3129 0.398639Z" fill="#FFCD1E"/>
<path d="M18.2537 4.74724C17.8223 4.53852 17.3202 4.52494 16.8347 4.70341C15.9851 5.01436 15.2843 5.8822 15.0381 6.91012C14.7478 8.15035 15.0367 9.38433 15.7781 10.0448C16.3223 10.5248 17.0398 10.6537 17.7571 10.3884C17.8509 10.3527 17.9449 10.3114 18.039 10.2647C18.05 10.2595 18.0557 10.2542 18.0667 10.249C18.8378 9.81004 20.0893 8.37137 19.3107 6.05673C19.048 5.26685 18.5879 4.90955 18.2537 4.74724Z" fill="#FFCD1E"/>
</svg>
