<svg width="50" height="50" viewBox="0 0 50 50" fill="none" xmlns="http://www.w3.org/2000/svg">
<rect width="50" height="50" rx="15" fill="#ECF8FF"/>
<path d="M23.8824 16.5313V13.5876C23.8824 12.8728 24.4618 12.2934 25.1765 12.2934H25.8235C26.5383 12.2934 27.1176 12.8728 27.1176 13.5876V16.5408C27.1176 16.901 27.2678 17.2449 27.5319 17.4898L30.5857 20.3211C30.8499 20.566 31 20.9099 31 21.2701V36.8817C31 37.5964 30.4206 38.1758 29.7059 38.1758H21.2941C20.5794 38.1758 20 37.5964 20 36.8817V21.1918C20 20.8261 20.1548 20.4774 20.426 20.2321L23.4563 17.4911C23.7276 17.2457 23.8824 16.8971 23.8824 16.5313Z" fill="#00A3FF"/>
<path d="M27.1172 16.2786V13.4258C27.1172 12.8004 26.6103 12.2934 25.9849 12.2934C25.3595 12.2934 24.8525 12.8004 24.8525 13.4258V16.4502C24.8525 16.9003 25.0089 17.3364 25.295 17.6839L27.3219 20.1462C27.6079 20.4937 27.7643 20.9298 27.7643 21.3799V37.5287C27.7643 37.8861 28.054 38.1758 28.4114 38.1758H29.7055C30.4202 38.1758 30.9996 37.5964 30.9996 36.8817V21.254C30.9996 20.8906 30.8469 20.5441 30.5787 20.2989L27.7485 17.7112C27.3463 17.3434 27.1172 16.8236 27.1172 16.2786Z" fill="#008FDF"/>
<path d="M22.5869 12.2941C22.5869 11.5794 23.1663 11 23.881 11H27.1163C27.831 11 28.4104 11.5794 28.4104 12.2941V13.5882C28.4104 13.9456 28.1207 14.2353 27.7634 14.2353H23.234C22.8766 14.2353 22.5869 13.9456 22.5869 13.5882V12.2941Z" fill="#FF4F22"/>
<path d="M22.5869 12.2941C22.5869 11.5794 23.1663 11 23.881 11H26.4693C27.184 11 27.7634 11.5794 27.7634 12.2941V13.5882C27.7634 13.9456 27.4737 14.2353 27.1163 14.2353H23.234C22.8766 14.2353 22.5869 13.9456 22.5869 13.5882V12.2941Z" fill="#FF6243"/>
<rect x="21.9416" y="22.6467" width="7.11765" height="12.2941" rx="0.647059" fill="#FF6243"/>
<path d="M27.7635 22.6467H28.4105C28.7679 22.6467 29.0576 22.9364 29.0576 23.2937V34.2937C29.0576 34.6511 28.7679 34.9408 28.4105 34.9408H27.7635V22.6467Z" fill="#FF4F22"/>
</svg>
