<svg width="50" height="50" viewBox="0 0 50 50" fill="none" xmlns="http://www.w3.org/2000/svg">
<rect width="50" height="50" rx="15" fill="#ECF8FF"/>
<path d="M28.9278 17C27.2253 17.0001 25.6553 17.9188 24.8213 19.403C23.9873 17.9188 22.4172 17.0001 20.7148 17C18.111 17 16 19.4152 16 22.019C16 28.5589 24.8213 33.1217 24.8213 33.1217C24.8213 33.1217 33.6426 28.5589 33.6426 22.019C33.6426 19.4152 31.5316 17 28.9278 17Z" fill="#FF6243"/>
<path d="M17.2167 22.019C17.2167 19.6099 19.0247 17.3666 21.3572 17.0438C21.1444 17.0146 20.9297 16.9999 20.7148 17C18.111 17 16 19.4152 16 22.019C16 28.5589 24.8213 33.1217 24.8213 33.1217C24.8213 33.1217 25.0494 33.0033 25.4297 32.7798C23.4367 31.6077 17.2167 27.5114 17.2167 22.019Z" fill="#FF4F22"/>
</svg>
