<svg width="50" height="50" viewBox="0 0 50 50" fill="none" xmlns="http://www.w3.org/2000/svg">
<rect width="50" height="50" rx="15" fill="#ECF8FF"/>
<path fill-rule="evenodd" clip-rule="evenodd" d="M30.4075 17.5504C30.4075 17.0432 29.9964 16.632 29.4892 16.632H22.1422C21.635 16.632 21.2239 17.0432 21.2239 17.5504V20.3055C21.2239 20.8127 20.8127 21.2239 20.3055 21.2239L17.5504 21.2239C17.0432 21.2239 16.632 21.635 16.632 22.1422L16.632 29.4892C16.632 29.9964 17.0432 30.4076 17.5504 30.4076H20.3055C20.8127 30.4076 21.2239 30.8187 21.2239 31.3259V34.081C21.2239 34.5882 21.635 34.9994 22.1422 34.9994H29.4892C29.9964 34.9994 30.4075 34.5882 30.4075 34.081V31.3259C30.4075 30.8187 30.8187 30.4076 31.3259 30.4076H34.081C34.5882 30.4076 34.9994 29.9964 34.9994 29.4892V22.1422C34.9994 21.635 34.5882 21.2239 34.081 21.2239H31.3259C30.8187 21.2239 30.4075 20.8127 30.4075 20.3055V17.5504Z" fill="#00A3FF"/>
<path fill-rule="evenodd" clip-rule="evenodd" d="M29.4898 16.6326C29.4898 16.1254 29.0786 15.7143 28.5714 15.7143H21.2245C20.7173 15.7143 20.3061 16.1254 20.3061 16.6326V19.3877C20.3061 19.8949 19.895 20.3061 19.3878 20.3061L16.6326 20.3061C16.1254 20.3061 15.7143 20.7173 15.7143 21.2245L15.7143 28.5714C15.7143 29.0786 16.1254 29.4898 16.6326 29.4898H19.3878C19.895 29.4898 20.3061 29.901 20.3061 30.4082V33.1633C20.3061 33.6705 20.7173 34.0816 21.2245 34.0816H28.5714C29.0786 34.0816 29.4898 33.6705 29.4898 33.1633V30.4081C29.4898 29.9009 29.901 29.4898 30.4082 29.4898H33.1633C33.6705 29.4898 34.0816 29.0786 34.0816 28.5714V21.2245C34.0816 20.7173 33.6705 20.3061 33.1633 20.3061H30.4082C29.901 20.3061 29.4898 19.8949 29.4898 19.3877V16.6326Z" fill="#FF6243"/>
</svg>
