<svg width="50" height="50" viewBox="0 0 50 50" fill="none" xmlns="http://www.w3.org/2000/svg">
<rect width="50" height="50" rx="15" fill="#ECF8FF"/>
<path d="M15.3607 15.6942C14.7583 15.2518 14.6997 14.3734 15.2381 13.855C15.9761 13.1442 17.2081 13.6204 17.2763 14.6427C17.3445 15.6651 16.1866 16.3007 15.3607 15.6942Z" fill="#FFBCAC"/>
<path d="M15.3258 14.8994C14.7234 14.457 14.6648 13.5786 15.2032 13.0602C15.9412 12.3494 17.1732 12.8256 17.2414 13.8479C17.3096 14.8703 16.1517 15.5059 15.3258 14.8994Z" fill="#FFCD1E"/>
<path d="M28.6447 11.69C28.5226 10.9526 29.0942 10.2831 29.8416 10.2881C30.8662 10.2949 31.4153 11.4962 30.75 12.2755C30.0847 13.0548 28.8122 12.7008 28.6447 11.69Z" fill="#FFBCAC"/>
<path d="M28.1753 11.6863C28.0532 10.949 28.6248 10.2794 29.3722 10.2844C30.3968 10.2912 30.9459 11.4925 30.2806 12.2718C29.6153 13.0511 28.3427 12.6972 28.1753 11.6863Z" fill="#FFCD1E"/>
<path d="M32.4201 36.3189C32.298 35.5815 32.8696 34.912 33.617 34.917C34.6416 34.9238 35.1907 36.1251 34.5254 36.9044C33.8601 37.6837 32.5876 37.3298 32.4201 36.3189Z" fill="#FFBCAC"/>
<path d="M31.9507 36.3152C31.8286 35.5779 32.4002 34.9083 33.1475 34.9133C34.1722 34.9201 34.7213 36.1214 34.056 36.9007C33.3907 37.68 32.1181 37.3261 31.9507 36.3152Z" fill="#FFCD1E"/>
<mask id="mask0_10_6690" style="mask-type:alpha" maskUnits="userSpaceOnUse" x="11" y="15" width="28" height="19">
<path fill-rule="evenodd" clip-rule="evenodd" d="M36.9085 20.8081C36.594 20.5787 36.442 20.1576 36.5375 19.7802C36.6855 19.1952 36.6665 18.5612 36.4464 17.9508C35.8592 16.3218 34.0627 15.4773 32.4337 16.0646C30.8048 16.6518 29.9603 18.4483 30.5475 20.0772C30.586 20.1839 30.5346 20.3044 30.4279 20.3428L18.2232 24.7424C18.1168 24.7807 18.0007 24.7209 17.9623 24.6145C17.3751 22.9856 15.5786 22.1411 13.9496 22.7283C12.3207 23.3155 11.4762 25.112 12.0634 26.7409C12.2837 27.3521 12.6743 27.8529 13.1623 28.209C13.4767 28.4384 13.6286 28.8594 13.5332 29.2367C13.3852 29.8218 13.4042 30.4558 13.6242 31.0662C14.2114 32.6952 16.008 33.5397 17.6369 32.9524C19.2659 32.3652 20.1104 30.5687 19.5232 28.9398C19.4847 28.8332 19.5361 28.7128 19.6427 28.6743L31.8474 24.2747C31.954 24.2363 32.0704 24.2963 32.1089 24.4029C32.6961 26.0318 34.4926 26.8763 36.1215 26.2891C37.7505 25.7019 38.595 23.9054 38.0078 22.2764C37.7874 21.6651 37.3967 21.1643 36.9085 20.8081Z" fill="#FF6243"/>
</mask>
<g mask="url(#mask0_10_6690)">
<path fill-rule="evenodd" clip-rule="evenodd" d="M36.9085 20.8081C36.594 20.5787 36.442 20.1576 36.5375 19.7802C36.6855 19.1952 36.6665 18.5612 36.4464 17.9508C35.8592 16.3218 34.0627 15.4773 32.4337 16.0646C30.8048 16.6518 29.9603 18.4483 30.5475 20.0772C30.586 20.1839 30.5346 20.3044 30.4279 20.3428L18.2232 24.7424C18.1168 24.7807 18.0007 24.7209 17.9623 24.6145C17.3751 22.9856 15.5786 22.1411 13.9496 22.7283C12.3207 23.3155 11.4762 25.112 12.0634 26.7409C12.2837 27.3521 12.6743 27.8529 13.1623 28.209C13.4767 28.4384 13.6286 28.8594 13.5332 29.2367C13.3852 29.8218 13.4042 30.4558 13.6242 31.0662C14.2114 32.6952 16.008 33.5397 17.6369 32.9524C19.2659 32.3652 20.1104 30.5687 19.5232 28.9398C19.4847 28.8332 19.5361 28.7128 19.6427 28.6743L31.8474 24.2747C31.954 24.2363 32.0704 24.2963 32.1089 24.4029C32.6961 26.0318 34.4926 26.8763 36.1215 26.2891C37.7505 25.7019 38.595 23.9054 38.0078 22.2764C37.7874 21.6651 37.3967 21.1643 36.9085 20.8081Z" fill="#FF4F22"/>
<path fill-rule="evenodd" clip-rule="evenodd" d="M37.0824 20.2049C36.8865 19.9596 36.8278 19.6225 36.9376 19.3284C37.2215 18.5677 37.2475 17.7063 36.9506 16.8826C36.2851 15.0365 34.2491 14.0794 32.4029 14.7449C30.8266 15.3131 29.8985 16.8805 30.0751 18.4758C30.1141 18.828 29.9396 19.1877 29.6062 19.3079L18.1513 23.4372C17.8305 23.5528 17.4792 23.404 17.2822 23.1257C16.3293 21.7797 14.563 21.176 12.9361 21.7625C10.9814 22.4671 9.96796 24.623 10.6726 26.5777C11.0202 27.542 11.7209 28.2772 12.5764 28.6901C12.832 28.8134 13.0104 29.0601 13.0573 29.3399C13.0881 29.5235 13.1357 29.7068 13.2011 29.8881C13.7883 31.517 15.5848 32.3615 17.2137 31.7743C18.3403 31.3682 19.0917 30.3837 19.2537 29.2762C19.2948 28.9957 19.4649 28.7404 19.7316 28.6442L31.7597 24.3083C32.0264 24.2122 32.3202 24.3001 32.5308 24.4899C33.3622 25.2389 34.5687 25.5174 35.6951 25.1114C37.324 24.5242 38.1685 22.7277 37.5813 21.0987C37.4615 20.7663 37.2913 20.4665 37.0824 20.2049Z" fill="#FF6243"/>
</g>
</svg>
