<svg width="50" height="50" viewBox="0 0 50 50" fill="none" xmlns="http://www.w3.org/2000/svg">
<rect width="50" height="50" rx="15" fill="#ECF8FF"/>
<path d="M23.436 34.8162C24.2259 35.343 25.1582 35.4886 25.9342 35.2027C26.2433 35.0907 26.512 34.9174 26.7404 34.6829C27.6289 33.7863 28.6353 33.4104 28.6475 33.4047C29.0234 33.2644 29.2751 33.2772 29.6528 33.2935C30.0604 33.3105 30.57 33.3303 31.3189 33.158C32.3214 32.9264 33.0248 32.2173 33.2683 31.201C33.5185 30.1608 33.2579 28.9202 32.6456 28.2598C32.3192 27.902 31.9235 27.6627 31.5042 27.4107C30.8135 26.9889 30.028 26.5163 29.3157 25.3358C27.5284 22.4053 25.0702 23.2053 24.7974 23.3062C24.7731 23.3176 24.7549 23.3231 24.7549 23.3231C24.6881 23.3514 24.0749 23.6116 23.505 24.2701C22.9785 24.8757 22.3855 25.9427 22.5447 27.6017C22.7143 29.3212 22.4991 29.9532 22.2966 30.5614C22.1399 31.0325 21.9768 31.5155 22.0088 32.3287C22.0538 33.3287 22.5753 34.2394 23.436 34.8162Z" fill="#FF6243"/>
<path d="M19.4924 25.9665C18.7551 25.4284 17.9138 25.2549 17.2399 25.5005C16.3903 25.812 16.0281 26.6924 16.3145 27.7459C16.8795 29.7913 18.6038 30.1536 19.4616 30.0637C19.6545 30.0548 19.8388 30.0174 20.0096 29.956C20.5555 29.7541 20.9202 29.3024 21.002 28.7111C21.1302 27.7913 20.5524 26.7394 19.4924 25.9665Z" fill="#FF6243"/>
<path d="M22.6413 21.6704C22.8044 20.7007 22.2719 19.6046 21.2147 18.7487C20.5547 18.212 19.7431 18.0383 19.0519 18.2938C18.2323 18.5947 17.542 19.5403 17.9645 20.9077C18.3152 22.0381 18.8521 22.7917 19.5658 23.1488C20.2845 23.506 20.9248 23.3275 21.1221 23.2594C21.201 23.2371 21.2798 23.2147 21.3587 23.1875C22.0548 22.9322 22.5194 22.3818 22.6413 21.6704Z" fill="#FF6243"/>
<path d="M25.6459 15.3727C24.8139 15.6784 24.2315 16.5379 24.1637 17.5705C24.0778 18.9009 24.4724 20.0006 25.2555 20.5788C25.8036 20.9864 26.4898 21.0895 27.1352 20.8533C27.3065 20.7933 27.4737 20.7034 27.6313 20.5982C28.3425 20.145 29.3205 18.6846 27.9802 16.3707C27.4461 15.4462 26.5281 15.0534 25.6459 15.3727Z" fill="#FF6243"/>
<path d="M33.076 19.4393C32.6724 19.244 32.2026 19.2313 31.7484 19.3983C30.9535 19.6892 30.2979 20.5011 30.0675 21.4629C29.7959 22.6232 30.0662 23.7777 30.7599 24.3957C31.269 24.8447 31.9403 24.9653 32.6113 24.7171C32.6991 24.6837 32.787 24.6451 32.8751 24.6014C32.8854 24.5965 32.8907 24.5915 32.901 24.5867C33.6225 24.176 34.7934 22.83 34.0649 20.6644C33.8191 19.9254 33.3887 19.5911 33.076 19.4393Z" fill="#FF6243"/>
</svg>
